<svg xmlns="http://www.w3.org/2000/svg" xmlns:xlink="http://www.w3.org/1999/xlink" version="1.1" width="425" height="103" enable-background="new 0 0 500.571 178.184" xml:space="preserve" style=""><rect id="backgroundrect" width="100%" height="100%" x="0" y="0" fill="none" stroke="none"/>

<g class="currentLayer" style=""><title>Layer 1</title><g id="svg_1" class="">
	<path fill="#231F20" d="M387.7609981975555,43.418001011371615 c-14.205,-4.472 -27.627,-8.696 -27.627,-18.566 c0,-3.636 2.461,-7.407 6.7490000000000006,-10.34 c4.88,-3.338 11.497,-5.177 18.63,-5.177 c14.567,0 23.801,6.614 27.092,9.454 l2.31,1.991 l5.936,-7.047 l-2.313,-1.991 c-5.1,-4.384 -16.168,-11.742 -33.023,-11.742 c-19.322,0 -34.465,10.917 -34.465,24.852 c0,7.658 3.856,13.731 11.778,18.564 c6.472,3.948 14.884,6.606 23.018,9.176 c15.396,4.862 29.934,9.453 29.934,21.381 c0,10.475 -13.858,19.326 -30.265,19.326 c-17.396,0 -28.037,-8.332 -31.808,-11.916 l-2.142,-2.037 l-6.439,6.516 l2.215,2.17 c4.471,4.39 17.154,14.602 38.174,14.602 c21.771,0 39.487,-12.859 39.487,-28.66 C424.99999819755556,55.13600101137162 405.21599819755556,48.91100101137161 387.7609981975555,43.418001011371615 " id="svg_2"/>
	<path fill="#F05A22" d="M235.23099819755555,63.33600101137161 c0,-14.911 -11.926,-25.618 -26.66,-25.618 c-14.2,0 -24.646,11.387 -25.851,25.618 h23.304 H235.23099819755555 zM182.71999819755555,68.21400101137161 c1.205,14.231 12.185,25.483 26.522,25.483 c12.858,0 21.431,-6.643 25.584,-15.723 l4.285,2.438 c-4.554,9.491 -14.601,18.163 -29.869,18.163 c-17.817,0 -31.35,-14.773 -31.35,-32.801 c0,-18.028 12.996,-32.803 30.679,-32.803 c17.812,0 31.478,12.336 31.478,30.364 v4.878 h-34.157 H182.71999819755555 zM114.53499819755555,65.77600101137162 c0,15.317 11.925,27.785 26.388,27.785 c14.467,0 26.254,-12.468 26.254,-27.785 c0,-15.182 -11.787,-27.921 -26.254,-27.921 C126.45899819755553,37.85400101137161 114.53499819755555,50.59400101137162 114.53499819755555,65.77600101137162 M172.00099819755553,65.77600101137162 c0,17.891000000000002 -13.797,32.663 -31.078,32.663 c-11.25,-0.132 -21.034,-6.772 -26.12,-16.806 h-0.402 l-0.535,15.589 h-4.019 V5.188001011371611 h4.6880000000000015 V50.052001011371615 h0.132 c5.092,-10.031 15.007,-16.807 26.256,-16.943 C158.20399819755553,33.10900101137162 172.00099819755553,48.02000101137162 172.00099819755553,65.77600101137162 M95.51399819755554,97.22200101137162 h-4.6880000000000015 V34.329001011371616 h4.6880000000000015 V97.22200101137162 zM93.09899819755555,10.067001011371616 c2.278,0 4.289,1.899 4.289,4.2 c0,2.3040000000000003 -2.011,4.339 -4.289,4.339 c-2.276,0 -4.149,-2.035 -4.149,-4.339 C88.94999819755554,11.96600101137161 90.82299819755553,10.067001011371616 93.09899819755555,10.067001011371616 M51.840998197555535,34.329001011371616 l0.538,20.195 h0.267 c5.355,-12.74 16.208,-21.415 28.667,-21.415 l-0.536,4.882 c-15.541,0.403 -28.264,15.858 -28.264,34.968 v24.263 h-4.69 V34.329001011371616 H51.840998197555535 zM14.333998197555545,19.827001011371614 v14.502 h23.978 v4.744 H14.333998197555545 v41.205 c0,7.322 5.891,13.283 13.128,13.283 c3.482,0 6.695,-1.221 9.375,-3.118 l2.814,3.933 c-3.353,2.574 -7.634,4.063 -12.189,4.063 c-9.914,0 -17.948,-8.129 -17.948,-18.161 V39.073001011371616 h-9.514 v-4.744 h9.514 V19.827001011371614 H14.333998197555545 z" id="svg_3"/>
	<path opacity="0.2" fill="#231F20" d="M331.11999819755556,14.874001011371611 c-9.551,-9.593 -22.254,-14.874 -35.768,-14.874 c-13.512,0 -26.212,5.281 -35.76,14.872 c-9.557,9.59 -14.815,22.342 -14.815,35.906 c0,13.564 5.259,26.317 14.815,35.908 c9.551,9.592 22.252,14.873 35.76,14.873 c13.514,0 26.217,-5.283 35.768,-14.874 c9.557,-9.591 14.818,-22.343 14.818,-35.907 C345.93799819755554,37.21400101137161 340.6769981975555,24.462001011371612 331.11999819755556,14.874001011371611 zM295.35199819755553,92.84800101137162 c-11.188,0 -21.712,-4.374 -29.627,-12.324 c-7.916,-7.945 -12.276,-18.51 -12.276,-29.746 c0,-11.232 4.36,-21.796 12.276,-29.747 c7.918,-7.948 18.439,-12.323 29.627,-12.323 c11.193,0 21.717,4.374 29.635,12.319 c7.916,7.949 12.274000000000001,18.513 12.274000000000001,29.75 c0,11.242 -4.361,21.804 -12.278,29.75 C317.0689981975555,88.47400101137161 306.54599819755555,92.84800101137162 295.35199819755553,92.84800101137162 z" id="svg_4"/>
	<path fill="#231F20" d="M331.13199819755556,15.003001011371616 c-9.554,-9.558 -22.261,-14.82 -35.779,-14.82 c-13.516,0 -26.221,5.2620000000000005 -35.771,14.819 c-9.56,9.555 -14.821,22.261 -14.821,35.777 c0,13.515 5.2620000000000005,26.222 14.821,35.778 c9.554,9.557 22.258,14.82 35.771,14.82 c13.519,0 26.226,-5.265 35.779,-14.821 c9.559,-9.556000000000001 14.823,-22.263 14.823,-35.777 C345.95499819755554,37.26200101137161 340.68999819755555,24.55700101137161 331.13199819755556,15.003001011371616 zM295.35199819755553,92.69800101137162 c-11.191,0 -21.719,-4.359 -29.637,-12.28 c-7.918,-7.917 -12.28,-18.444 -12.28,-29.639 c0,-11.193 4.362,-21.719 12.28,-29.64 c7.92,-7.9190000000000005 18.445,-12.279 29.637,-12.279 c11.197,0 21.724,4.359 29.645,12.275 c7.918,7.921 12.277,18.447 12.277,29.644 c0,11.2 -4.362,21.726 -12.282,29.642 C317.0759981975555,88.33800101137162 306.54999819755557,92.69800101137162 295.35199819755553,92.69800101137162 z" id="svg_5"/>
	<linearGradient id="SVGID_1_" x1="0.4999889135360718" y1="0.9999860525131226" x2="0.4999889135360718" y2="-0.0000037106538002262823" transform="translate(-41.93980407714844,-38.46297073364258) translate(3.9548022747039795,0.5649717450141907) ">
		<stop offset="0" style="stop-color:#DA1F27"/>
		<stop offset="0.408" style="stop-color:#EF4E23"/>
		<stop offset="0.9058" style="stop-color:#FFD41A"/>
	</linearGradient>
	<path fill="url(#SVGID_1_)" d="M302.2059981975555,55.63900101137162 c-5.088,-7.7940000000000005 -5.768,-15.198 -2.589,-20.524 c1.604,-3.067 4.522,-3.902 7.333,-3.251 c-2.3850000000000002,0.055000000000000014 -4.619,1.346 -5.176,4.239 c-0.4730000000000001,2.902 0.3280000000000001,5.277 1.467,7.434 c2.16,4.295 6.475,7.798 8.516,13.3 c2.222,5.525 0.7340000000000002,10.087 -2.369,13.137 c-2.9290000000000003,3.072 -8.445,4.836 -8.232,4.861 C300.52199819755555,74.75300101137161 312.92499819755557,71.29500101137161 302.2059981975555,55.63900101137162 z" id="svg_6"/>
	<g id="svg_7">
		<linearGradient id="SVGID_2_" x1="0.4999937117099762" y1="1.0000309944152832" x2="0.4999937117099762" y2="0.000015235773389576934" transform="translate(-41.93980407714844,-38.46297073364258) translate(3.9548022747039795,0.5649717450141907) ">
			<stop offset="0" style="stop-color:#DA1F27"/>
			<stop offset="0.408" style="stop-color:#EF4E23"/>
			<stop offset="0.9058" style="stop-color:#FFD41A"/>
		</linearGradient>
		<path fill="url(#SVGID_2_)" d="M288.0569981975555,73.08200101137162 L288.0569981975555,73.08200101137162 c-0.787,-8.671 4.438,-16.063 6.728,-24.052 c2.4,-8.375 2.326,-18.1 -3.532,-25.08 c-5.573,-7.45 -16.48,-10.812 -18.346,-11.5 c3.512,1.53 5.1370000000000005,2.342 6.968,3.914 c3.249,2.789 5.702,6.396 6.808,10.571 c1.404,5.304 0.05800000000000002,10.675 -3.196,15.029 c-5.459,7.198 -10.929,17.056 -9.069,26.424 c0.3050000000000001,2.11 1.183,4.054 2.167,5.918 c0.972,1.608 2.212,3.441 3.755,4.564 l0,0 c5.002,4.475 11.959,6.271 16.781,5.525 c0.007000000000000004,0.005000000000000002 0.002000000000000001,0.008000000000000004 -0.004000000000000002,0.013000000000000006 c0.016000000000000007,-0.007000000000000004 0.021000000000000008,-0.013000000000000006 0.02900000000000001,-0.016000000000000007 c0.012000000000000004,-0.005000000000000002 0.02500000000000001,-0.006000000000000004 0.035,-0.007000000000000004 c-0.010000000000000004,-0.007000000000000004 -0.023000000000000013,-0.009000000000000006 -0.035,-0.010000000000000004 C296.99599819755554,84.09500101137161 288.85099819755555,82.63500101137161 288.0569981975555,73.08200101137162 z" id="svg_8"/>
	</g>
	<linearGradient id="SVGID_3_" x1="0.4999922215938568" y1="1.000002384185791" x2="0.4999922215938568" y2="0.00001124386108131148" transform="translate(-41.93980407714844,-38.46297073364258) translate(3.9548022747039795,0.5649717450141907) ">
		<stop offset="0" style="stop-color:#DA1F27"/>
		<stop offset="0.3782" style="stop-color:#EF4E23"/>
		<stop offset="0.8139" style="stop-color:#FFD41A"/>
	</linearGradient>
	<path fill="url(#SVGID_3_)" d="M316.83599819755557,57.50200101137162 c-0.402,-1.6600000000000001 -1.02,-3.262 -1.803,-4.777 c-0.6250000000000002,-1.211 -1.5950000000000002,-2.861 -2.526,-3.826 c0.809,0.981 1.135,1.596 1.592,2.435 c0.509,0.93 0.916,1.904 1.234,2.915 c0.7150000000000002,2.268 0.911,4.699 0.5840000000000002,7.053 c-0.6430000000000002,4.616 -3.292,8.576 -7.154,11.121 c-0.056000000000000015,0.049000000000000016 0.047000000000000014,-0.047000000000000014 0.021000000000000008,-0.030000000000000013 c-2.25,1.489 -4.941,2.302 -7.6290000000000004,2.442 c3.403,-2.991 1.067,-7.446 -0.7440000000000002,-10.561 c-1.086,-1.867 -2.268,-3.678 -3.335,-5.557 c-0.798,-1.405 -1.731,-2.989 -1.8880000000000003,-4.634 c-3.217,7.484 -7.709,16.267 -3.441,24.297 c2.718,4.6770000000000005 7.708,5.587 7.834,5.802 l0.002000000000000001,0.0010000000000000005 C311.92099819755555,82.10600101137162 319.8089981975555,69.60500101137161 316.83599819755557,57.50200101137162 C316.29199819755553,55.25600101137161 317.3859981975555,59.73900101137161 316.83599819755557,57.50200101137162 z" id="svg_9"/>
</g></g></svg>